<svg width="100" height="100" viewBox="0 0 100 100" fill="none" xmlns="http://www.w3.org/2000/svg">
    <path d="M50 10C27.9086 10 10 27.9086 10 50C10 72.0914 27.9086 90 50 90C72.0914 90 90 72.0914 90 50C90 27.9086 72.0914 10 50 10Z" fill="#E6FFFA"/>
    <path d="M50 80C33.4315 80 20 66.5685 20 50C20 33.4315 33.4315 20 50 20C66.5685 20 80 33.4315 80 50C80 66.5685 66.5685 80 50 80Z" fill="#0BC5EA" fill-opacity="0.1"/>
    <path d="M50 25L52.5317 32.7639H60.7308L54.0996 37.4721L56.6312 45.2361L50 40.5279L43.3688 45.2361L45.9004 37.4721L39.2692 32.7639H47.4683L50 25Z" fill="#0BC5EA"/>
    <path d="M30 45L31.5491 50.1885H37.0153L32.7331 53.3729L34.2822 58.5615L30 55.3771L25.7178 58.5615L27.2669 53.3729L22.9847 50.1885H28.4509L30 45Z" fill="#0BC5EA"/>
    <path d="M70 45L71.5491 50.1885H77.0153L72.7331 53.3729L74.2822 58.5615L70 55.3771L65.7178 58.5615L67.2669 53.3729L62.9847 50.1885H68.4509L70 45Z" fill="#0BC5EA"/>
    <rect x="47.5" y="45" width="5" height="30" fill="#805AD5"/>
    <rect x="42.5" y="50" width="15" height="5" fill="#805AD5"/>
    <rect x="42.5" y="60" width="15" height="5" fill="#805AD5"/>
    <rect x="42.5" y="70" width="15" height="5" fill="#805AD5"/>
    <path d="M35 70L42.5 70L42.5 75L35 75C35 75 35 70 35 70Z" fill="#805AD5"/>
    <path d="M65 70L57.5 70L57.5 75L65 75C65 75 65 70 65 70Z" fill="#805AD5"/>
</svg>