<svg width="100" height="100" viewBox="0 0 100 100" fill="none" xmlns="http://www.w3.org/2000/svg">
    <path d="M50 10C27.9086 10 10 27.9086 10 50C10 72.0914 27.9086 90 50 90C72.0914 90 90 72.0914 90 50C90 27.9086 72.0914 10 50 10Z" fill="#FFECF8"/>
    <path d="M50 15C30.67 15 15 30.67 15 50C15 69.33 30.67 85 50 85C69.33 85 85 69.33 85 50C85 30.67 69.33 15 50 15ZM50 80C33.43 80 20 66.57 20 50C20 33.43 33.43 20 50 20C66.57 20 80 33.43 80 50C80 66.57 66.57 80 50 80Z" fill="#D53F8C"/>
    <path d="M36 40.5C38.4853 40.5 40.5 38.4853 40.5 36C40.5 33.5147 38.4853 31.5 36 31.5C33.5147 31.5 31.5 33.5147 31.5 36C31.5 38.4853 33.5147 40.5 36 40.5Z" fill="#D53F8C"/>
    <path d="M64 40.5C66.4853 40.5 68.5 38.4853 68.5 36C68.5 33.5147 66.4853 31.5 64 31.5C61.5147 31.5 59.5 33.5147 59.5 36C59.5 38.4853 61.5147 40.5 64 40.5Z" fill="#D53F8C"/>
    <path d="M50 70C59.1127 70 65 63.0604 65 55C65 46.9396 58.75 50 50 50C41.25 50 35 46.9396 35 55C35 63.0604 40.8873 70 50 70Z" fill="#D53F8C"/>
    <path d="M29.5 55.5C29.5 55.5 27 58 26 60.5C25 63 26 65 26 65C26 65 28.5 65.5 31 64C33.5 62.5 34.5 60 34.5 60C34.5 60 31.5 60 30.5 58.5C29.5 57 29.5 55.5 29.5 55.5Z" fill="#9F7AEA"/>
    <path d="M70.5 55.5C70.5 55.5 73 58 74 60.5C75 63 74 65 74 65C74 65 71.5 65.5 69 64C66.5 62.5 65.5 60 65.5 60C65.5 60 68.5 60 69.5 58.5C70.5 57 70.5 55.5 70.5 55.5Z" fill="#9F7AEA"/>
</svg>